<svg xmlns="http://www.w3.org/2000/svg" viewBox="0 0 800 460" fill="none" role="img" aria-labelledby="title desc">
  <title id="title">Nutzungs-Dashboard</title>
  <desc id="desc">Symbolisches Dashboard mit blauem Balkendiagramm, Verbrauchsring und abstrakten Kennzahlen ohne echte Nutzungsdaten.</desc>
  <defs>
    <radialGradient id="glow"><stop stop-color="#67a7e8" stop-opacity=".16"/><stop offset="1" stop-color="#67a7e8" stop-opacity="0"/></radialGradient>
    <linearGradient id="panel" x1="84" y1="70" x2="716" y2="382" gradientUnits="userSpaceOnUse"><stop stop-color="#223038"/><stop offset="1" stop-color="#141e21"/></linearGradient>
    <linearGradient id="bar" x1="0" y1="236" x2="0" y2="346" gradientUnits="userSpaceOnUse"><stop stop-color="#8bbdf5"/><stop offset="1" stop-color="#34688d"/></linearGradient>
    <pattern id="grid" width="40" height="40" patternUnits="userSpaceOnUse"><path d="M40 0H0V40" stroke="#91c3ec" stroke-opacity=".045"/></pattern>
    <filter id="shadow" x="-25%" y="-30%" width="150%" height="170%"><feDropShadow dy="17" stdDeviation="20" flood-color="#03080b" flood-opacity=".5"/></filter>
  </defs>
  <path fill="#12181a" d="M0 0h800v460H0z"/><path fill="url(#grid)" d="M0 0h800v460H0z"/>
  <ellipse cx="410" cy="225" rx="360" ry="235" fill="url(#glow)"/>
  <circle cx="648" cy="160" r="135" stroke="#70a9d4" stroke-opacity=".08"/><circle cx="648" cy="160" r="160" stroke="#70a9d4" stroke-opacity=".05"/>
  <g filter="url(#shadow)">
    <rect x="84" y="67" width="632" height="323" rx="14" fill="url(#panel)" stroke="#49616e"/>
    <path d="M85 116h630" stroke="#3a505c"/>
    <path d="M106 98V86m7 12V81m7 17V90" stroke="#8fc0ec" stroke-width="3" stroke-linecap="round"/>
    <text x="135" y="96" fill="#d1e0e6" font-family="ui-monospace, monospace" font-size="14" letter-spacing="1.5">USAGE OVERVIEW</text>
    <rect x="602" y="81" width="91" height="23" rx="6" fill="#121c22" stroke="#3c5566"/>
    <path d="M614 92h42m12-2 4 4 4-4" stroke="#8aa3b5" stroke-width="2" stroke-linecap="round"/>
    <rect x="108" y="138" width="180" height="71" rx="9" fill="#18272e" stroke="#3b5464"/>
    <text x="125" y="161" fill="#94b6ca" font-family="ui-monospace, monospace" font-size="13" letter-spacing="1">REQUESTS</text>
    <path d="M126 185h62" stroke="#c4ddeb" stroke-width="7" stroke-linecap="round"/>
    <path d="m223 186 11-9 10 4 15-18 10 5" stroke="#83b8f0" stroke-width="2" stroke-linecap="round" stroke-linejoin="round"/>
    <rect x="303" y="138" width="180" height="71" rx="9" fill="#18272e" stroke="#3b5464"/>
    <text x="320" y="161" fill="#94b6ca" font-family="ui-monospace, monospace" font-size="13" letter-spacing="1">TOKENS</text>
    <path d="M321 185h72" stroke="#c4ddeb" stroke-width="7" stroke-linecap="round"/>
    <path d="M430 187v-8m9 8v-18m9 18v-13m9 13v-24" stroke="#6a9fc7" stroke-width="4" stroke-linecap="round"/>
    <rect x="108" y="223" width="375" height="143" rx="9" fill="#142229" stroke="#344c5b"/>
    <path d="M128 258h334m-334 40h334m-334 40h334" stroke="#345262" stroke-dasharray="3 6"/>
    <path d="M128 345h334" stroke="#4a6879"/>
    <rect x="143" y="313" width="22" height="31" rx="3" fill="url(#bar)"/>
    <rect x="180" y="289" width="22" height="55" rx="3" fill="url(#bar)"/>
    <rect x="217" y="302" width="22" height="42" rx="3" fill="url(#bar)"/>
    <rect x="254" y="272" width="22" height="72" rx="3" fill="url(#bar)"/>
    <rect x="291" y="282" width="22" height="62" rx="3" fill="url(#bar)"/>
    <rect x="328" y="256" width="22" height="88" rx="3" fill="url(#bar)"/>
    <rect x="365" y="271" width="22" height="73" rx="3" fill="url(#bar)"/>
    <rect x="402" y="244" width="22" height="100" rx="3" fill="#9bcdff"/>
    <path d="M128 238h73" stroke="#7096ac" stroke-width="3" stroke-linecap="round"/>
    <rect x="499" y="138" width="193" height="228" rx="9" fill="#18272e" stroke="#3b5464"/>
    <text x="517" y="161" fill="#94b6ca" font-family="ui-monospace, monospace" font-size="13" letter-spacing="1">CONSUMPTION</text>
    <circle cx="595" cy="240" r="54" stroke="#304955" stroke-width="11"/>
    <circle cx="595" cy="240" r="54" stroke="#8bbff2" stroke-width="11" stroke-dasharray="228 340" stroke-linecap="round" transform="rotate(-90 595 240)"/>
    <circle cx="595" cy="240" r="38" stroke="#557585" stroke-opacity=".45" stroke-dasharray="1 8"/>
    <path d="M580 240h30" stroke="#d6e7f0" stroke-width="7" stroke-linecap="round"/>
    <circle cx="533" cy="317" r="4" fill="#8bbff2"/><path d="M548 317h107" stroke="#7898ab" stroke-width="4" stroke-linecap="round"/>
    <circle cx="533" cy="339" r="4" fill="#476778"/><path d="M548 339h78" stroke="#557685" stroke-width="4" stroke-linecap="round"/>
  </g>
</svg>
